<?xml version="1.0" standalone="no"?>
<!DOCTYPE svg PUBLIC "-//W3C//DTD SVG 20010904//EN"
 "http://www.w3.org/TR/2001/REC-SVG-20010904/DTD/svg10.dtd">
<svg version="1.0" xmlns="http://www.w3.org/2000/svg"
 width="1024.000000pt" height="1024.000000pt" viewBox="0 0 1024.000000 1024.000000"
 preserveAspectRatio="xMidYMid meet">
<metadata>
Created by potrace 1.14, written by Peter Selinger 2001-2017
</metadata>
<g transform="translate(0.000000,1024.000000) scale(0.100000,-0.100000)"
fill="#000000" stroke="none">
<path d="M7970 8355 l0 -1876 -76 53 c-42 29 -97 66 -123 82 -25 16 -82 53
-126 81 -44 29 -111 69 -150 90 -38 20 -72 40 -75 44 -3 4 -54 31 -115 60 -60
28 -112 55 -115 59 -3 4 -63 32 -135 62 -71 29 -132 57 -135 60 -3 4 -72 30
-155 59 -82 28 -164 58 -181 66 -17 8 -119 37 -225 64 -107 27 -207 54 -224
60 -37 13 -242 47 -400 66 -170 21 -1080 21 -1250 0 -158 -19 -363 -53 -400
-66 -16 -6 -117 -33 -224 -60 -106 -27 -208 -56 -225 -64 -17 -8 -98 -38 -181
-66 -82 -29 -152 -55 -155 -59 -3 -4 -63 -31 -135 -60 -71 -29 -132 -57 -135
-61 -3 -5 -55 -32 -115 -60 -61 -29 -112 -56 -115 -60 -3 -4 -36 -24 -75 -44
-38 -21 -106 -61 -150 -90 -44 -28 -101 -65 -126 -81 -79 -49 -203 -136 -214
-148 -5 -7 -39 -34 -75 -60 l-65 -47 -3 1871 c-1 1028 -5 1870 -8 1870 -8 0
-118 -87 -159 -125 -17 -16 -72 -66 -120 -110 -107 -97 -333 -326 -372 -376
-15 -20 -62 -77 -103 -125 -661 -778 -1118 -1809 -1269 -2859 -51 -351 -56
-429 -56 -895 0 -359 4 -475 18 -600 27 -242 58 -443 70 -467 7 -12 1105
-1029 2441 -2260 l2429 -2238 56 -3 56 -2 2505 2160 c1378 1188 2510 2170
2517 2183 14 27 67 343 88 522 30 268 38 454 32 814 -5 359 -15 498 -58 786
-155 1060 -607 2080 -1269 2859 -41 48 -88 105 -103 125 -79 103 -450 459
-601 576 -33 25 -64 52 -70 59 -6 7 -41 34 -78 60 l-68 47 0 -1876z"/>
</g>
</svg>
